<mxfile host="app.diagrams.net" agent="Mozilla/5.0 (Windows NT 10.0; Win64; x64) AppleWebKit/537.36 (KHTML, like Gecko) Chrome/140.0.0.0 Safari/537.36" version="28.2.1">
  <diagram name="Page-1" id="LktSVnluF4ekYC1X5Gm9">
    <mxGraphModel dx="815" dy="429" grid="1" gridSize="10" guides="1" tooltips="1" connect="1" arrows="1" fold="1" page="1" pageScale="1" pageWidth="850" pageHeight="1100" math="0" shadow="0">
      <root>
        <mxCell id="0" />
        <mxCell id="1" parent="0" />
        <mxCell id="9BhlSFVfMuV4Uu7YiXGv-2" value="Github repo" style="rounded=0;whiteSpace=wrap;html=1;fillColor=#f8cecc;strokeColor=#b85450;" parent="1" vertex="1">
          <mxGeometry x="470" y="160" width="120" height="60" as="geometry" />
        </mxCell>
        <mxCell id="9BhlSFVfMuV4Uu7YiXGv-3" value="Git Hub&lt;div&gt;Server&lt;/div&gt;" style="text;html=1;align=center;verticalAlign=middle;whiteSpace=wrap;rounded=0;" parent="1" vertex="1">
          <mxGeometry x="500" y="130" width="60" height="30" as="geometry" />
        </mxCell>
        <mxCell id="9BhlSFVfMuV4Uu7YiXGv-6" value="" style="group;fillColor=#dae8fc;strokeColor=#6c8ebf;" parent="1" vertex="1" connectable="0">
          <mxGeometry x="140" y="110" width="140" height="110" as="geometry" />
        </mxCell>
        <mxCell id="9BhlSFVfMuV4Uu7YiXGv-1" value="Git repo" style="rounded=0;whiteSpace=wrap;html=1;" parent="9BhlSFVfMuV4Uu7YiXGv-6" vertex="1">
          <mxGeometry x="20" y="50" width="120" height="60" as="geometry" />
        </mxCell>
        <mxCell id="9BhlSFVfMuV4Uu7YiXGv-4" value="" style="shape=actor;whiteSpace=wrap;html=1;" parent="9BhlSFVfMuV4Uu7YiXGv-6" vertex="1">
          <mxGeometry width="30" height="50" as="geometry" />
        </mxCell>
        <mxCell id="9BhlSFVfMuV4Uu7YiXGv-7" value="" style="group;fillColor=#d5e8d4;strokeColor=#82b366;" parent="1" vertex="1" connectable="0">
          <mxGeometry x="450" y="310" width="140" height="110" as="geometry" />
        </mxCell>
        <mxCell id="9BhlSFVfMuV4Uu7YiXGv-8" value="Git repo" style="rounded=0;whiteSpace=wrap;html=1;" parent="9BhlSFVfMuV4Uu7YiXGv-7" vertex="1">
          <mxGeometry x="20" y="50" width="120" height="60" as="geometry" />
        </mxCell>
        <mxCell id="9BhlSFVfMuV4Uu7YiXGv-9" value="" style="shape=actor;whiteSpace=wrap;html=1;" parent="9BhlSFVfMuV4Uu7YiXGv-7" vertex="1">
          <mxGeometry width="30" height="50" as="geometry" />
        </mxCell>
        <mxCell id="iR7yz01aufCSReRVloAO-240" value="Commits" style="text;html=1;align=center;verticalAlign=middle;whiteSpace=wrap;rounded=0;" parent="9BhlSFVfMuV4Uu7YiXGv-7" vertex="1">
          <mxGeometry x="80" width="60" height="30" as="geometry" />
        </mxCell>
        <mxCell id="9BhlSFVfMuV4Uu7YiXGv-10" value="" style="endArrow=classic;html=1;rounded=0;exitX=1;exitY=0.5;exitDx=0;exitDy=0;entryX=0;entryY=0.5;entryDx=0;entryDy=0;" parent="1" source="9BhlSFVfMuV4Uu7YiXGv-1" target="9BhlSFVfMuV4Uu7YiXGv-2" edge="1">
          <mxGeometry width="50" height="50" relative="1" as="geometry">
            <mxPoint x="340" y="230" as="sourcePoint" />
            <mxPoint x="390" y="180" as="targetPoint" />
          </mxGeometry>
        </mxCell>
        <mxCell id="9BhlSFVfMuV4Uu7YiXGv-11" value="Upload" style="edgeLabel;html=1;align=center;verticalAlign=middle;resizable=0;points=[];" parent="9BhlSFVfMuV4Uu7YiXGv-10" vertex="1" connectable="0">
          <mxGeometry x="-0.0007" y="1" relative="1" as="geometry">
            <mxPoint as="offset" />
          </mxGeometry>
        </mxCell>
        <mxCell id="9BhlSFVfMuV4Uu7YiXGv-12" value="assaf" style="text;html=1;align=center;verticalAlign=middle;whiteSpace=wrap;rounded=0;" parent="1" vertex="1">
          <mxGeometry x="90" y="120" width="60" height="30" as="geometry" />
        </mxCell>
        <mxCell id="9BhlSFVfMuV4Uu7YiXGv-13" value="David" style="text;html=1;align=center;verticalAlign=middle;whiteSpace=wrap;rounded=0;" parent="1" vertex="1">
          <mxGeometry x="365" y="330" width="60" height="30" as="geometry" />
        </mxCell>
        <mxCell id="9BhlSFVfMuV4Uu7YiXGv-14" value="" style="endArrow=classic;html=1;rounded=0;exitX=0.5;exitY=1;exitDx=0;exitDy=0;entryX=0.5;entryY=0;entryDx=0;entryDy=0;startArrow=classic;startFill=1;" parent="1" source="9BhlSFVfMuV4Uu7YiXGv-2" target="9BhlSFVfMuV4Uu7YiXGv-8" edge="1">
          <mxGeometry width="50" height="50" relative="1" as="geometry">
            <mxPoint x="530" y="360" as="sourcePoint" />
            <mxPoint x="580" y="310" as="targetPoint" />
          </mxGeometry>
        </mxCell>
        <mxCell id="9BhlSFVfMuV4Uu7YiXGv-15" value="Clone" style="edgeLabel;html=1;align=center;verticalAlign=middle;resizable=0;points=[];" parent="9BhlSFVfMuV4Uu7YiXGv-14" vertex="1" connectable="0">
          <mxGeometry x="-0.203" y="3" relative="1" as="geometry">
            <mxPoint as="offset" />
          </mxGeometry>
        </mxCell>
        <mxCell id="9BhlSFVfMuV4Uu7YiXGv-16" value="Remote" style="text;html=1;align=center;verticalAlign=middle;whiteSpace=wrap;rounded=0;" parent="1" vertex="1">
          <mxGeometry x="440" y="140" width="60" height="30" as="geometry" />
        </mxCell>
        <mxCell id="9BhlSFVfMuV4Uu7YiXGv-18" value="&lt;h1 style=&quot;margin-top: 0px;&quot;&gt;&lt;span style=&quot;font-size: 12px;&quot;&gt;commit 889f28d&lt;/span&gt;&lt;/h1&gt;&lt;div&gt;commit 889f28d&lt;/div&gt;" style="text;html=1;whiteSpace=wrap;overflow=hidden;rounded=0;fontStyle=1" parent="1" vertex="1">
          <mxGeometry x="605" y="330" width="110" height="125" as="geometry" />
        </mxCell>
        <mxCell id="9BhlSFVfMuV4Uu7YiXGv-19" value="&lt;h1 style=&quot;margin-top: 0px;&quot;&gt;&lt;span style=&quot;background-color: transparent; color: light-dark(rgb(0, 0, 0), rgb(255, 255, 255)); font-size: 12px;&quot;&gt;commit A1D&lt;/span&gt;&lt;/h1&gt;&lt;div&gt;&lt;br&gt;&lt;/div&gt;" style="text;html=1;whiteSpace=wrap;overflow=hidden;rounded=0;fontStyle=1" parent="1" vertex="1">
          <mxGeometry x="40" y="150" width="110" height="100" as="geometry" />
        </mxCell>
        <mxCell id="9BhlSFVfMuV4Uu7YiXGv-20" value="GIT RMOTE ADD&lt;br&gt;MIRROR of git repo" style="text;html=1;align=center;verticalAlign=middle;whiteSpace=wrap;rounded=0;" parent="1" vertex="1">
          <mxGeometry x="340" y="120" width="160" height="30" as="geometry" />
        </mxCell>
        <mxCell id="iR7yz01aufCSReRVloAO-14" value="" style="group" parent="1" vertex="1" connectable="0">
          <mxGeometry x="190" y="1350" width="260" height="70" as="geometry" />
        </mxCell>
        <mxCell id="iR7yz01aufCSReRVloAO-4" value="COMMIT&lt;br&gt;{123de3a1}&lt;br&gt;Assaf Shai&lt;br&gt;13.9" style="rounded=0;whiteSpace=wrap;html=1;" parent="iR7yz01aufCSReRVloAO-14" vertex="1">
          <mxGeometry x="150" width="110" height="70" as="geometry" />
        </mxCell>
        <mxCell id="iR7yz01aufCSReRVloAO-13" value="" style="group" parent="iR7yz01aufCSReRVloAO-14" vertex="1" connectable="0">
          <mxGeometry width="120" height="60" as="geometry" />
        </mxCell>
        <mxCell id="iR7yz01aufCSReRVloAO-10" value="" style="group" parent="iR7yz01aufCSReRVloAO-13" vertex="1" connectable="0">
          <mxGeometry width="120" height="60" as="geometry" />
        </mxCell>
        <mxCell id="iR7yz01aufCSReRVloAO-3" value="" style="group" parent="iR7yz01aufCSReRVloAO-10" vertex="1" connectable="0">
          <mxGeometry x="60" width="60" height="60" as="geometry" />
        </mxCell>
        <mxCell id="iR7yz01aufCSReRVloAO-1" value="File 1" style="text;html=1;align=center;verticalAlign=middle;whiteSpace=wrap;rounded=0;" parent="iR7yz01aufCSReRVloAO-3" vertex="1">
          <mxGeometry width="60" height="30" as="geometry" />
        </mxCell>
        <mxCell id="iR7yz01aufCSReRVloAO-2" value="File 2" style="text;html=1;align=center;verticalAlign=middle;whiteSpace=wrap;rounded=0;" parent="iR7yz01aufCSReRVloAO-3" vertex="1">
          <mxGeometry y="30" width="60" height="30" as="geometry" />
        </mxCell>
        <mxCell id="iR7yz01aufCSReRVloAO-9" value="" style="group" parent="iR7yz01aufCSReRVloAO-10" vertex="1" connectable="0">
          <mxGeometry width="50" height="50" as="geometry" />
        </mxCell>
        <mxCell id="iR7yz01aufCSReRVloAO-6" value="&lt;font style=&quot;font-size: 5px;&quot;&gt;Code changes&lt;/font&gt;" style="text;html=1;align=center;verticalAlign=middle;whiteSpace=wrap;rounded=0;" parent="iR7yz01aufCSReRVloAO-9" vertex="1">
          <mxGeometry width="50" height="20" as="geometry" />
        </mxCell>
        <mxCell id="iR7yz01aufCSReRVloAO-8" value="&lt;font style=&quot;font-size: 5px;&quot;&gt;Code changes&lt;/font&gt;" style="text;html=1;align=center;verticalAlign=middle;whiteSpace=wrap;rounded=0;container=1;" parent="iR7yz01aufCSReRVloAO-9" vertex="1">
          <mxGeometry y="30" width="50" height="20" as="geometry" />
        </mxCell>
        <mxCell id="iR7yz01aufCSReRVloAO-5" value="" style="endArrow=classic;html=1;rounded=0;exitX=1;exitY=0.5;exitDx=0;exitDy=0;entryX=0;entryY=0.25;entryDx=0;entryDy=0;" parent="iR7yz01aufCSReRVloAO-14" source="iR7yz01aufCSReRVloAO-1" target="iR7yz01aufCSReRVloAO-4" edge="1">
          <mxGeometry width="50" height="50" relative="1" as="geometry">
            <mxPoint x="120" y="-40" as="sourcePoint" />
            <mxPoint x="150" y="-40" as="targetPoint" />
          </mxGeometry>
        </mxCell>
        <mxCell id="iR7yz01aufCSReRVloAO-11" value="" style="endArrow=classic;html=1;rounded=0;exitX=0.969;exitY=0.515;exitDx=0;exitDy=0;entryX=0.014;entryY=0.644;entryDx=0;entryDy=0;exitPerimeter=0;entryPerimeter=0;" parent="iR7yz01aufCSReRVloAO-14" source="iR7yz01aufCSReRVloAO-2" target="iR7yz01aufCSReRVloAO-4" edge="1">
          <mxGeometry width="50" height="50" relative="1" as="geometry">
            <mxPoint x="150" y="20" as="sourcePoint" />
            <mxPoint x="200" y="23" as="targetPoint" />
          </mxGeometry>
        </mxCell>
        <mxCell id="iR7yz01aufCSReRVloAO-15" value="" style="group" parent="1" vertex="1" connectable="0">
          <mxGeometry x="190" y="1240" width="260" height="70" as="geometry" />
        </mxCell>
        <mxCell id="iR7yz01aufCSReRVloAO-16" value="COMMIT&lt;br&gt;{12as34232}&lt;br&gt;Assaf Shai&lt;br&gt;14.9" style="rounded=0;whiteSpace=wrap;html=1;" parent="iR7yz01aufCSReRVloAO-15" vertex="1">
          <mxGeometry x="150" width="110" height="70" as="geometry" />
        </mxCell>
        <mxCell id="iR7yz01aufCSReRVloAO-17" value="" style="group" parent="iR7yz01aufCSReRVloAO-15" vertex="1" connectable="0">
          <mxGeometry width="120" height="60" as="geometry" />
        </mxCell>
        <mxCell id="iR7yz01aufCSReRVloAO-18" value="" style="group" parent="iR7yz01aufCSReRVloAO-17" vertex="1" connectable="0">
          <mxGeometry width="120" height="60" as="geometry" />
        </mxCell>
        <mxCell id="iR7yz01aufCSReRVloAO-19" value="" style="group" parent="iR7yz01aufCSReRVloAO-18" vertex="1" connectable="0">
          <mxGeometry x="60" width="60" height="60" as="geometry" />
        </mxCell>
        <mxCell id="iR7yz01aufCSReRVloAO-20" value="File 2" style="text;html=1;align=center;verticalAlign=middle;whiteSpace=wrap;rounded=0;" parent="iR7yz01aufCSReRVloAO-19" vertex="1">
          <mxGeometry width="60" height="30" as="geometry" />
        </mxCell>
        <mxCell id="iR7yz01aufCSReRVloAO-21" value="File 3" style="text;html=1;align=center;verticalAlign=middle;whiteSpace=wrap;rounded=0;" parent="iR7yz01aufCSReRVloAO-19" vertex="1">
          <mxGeometry y="30" width="60" height="30" as="geometry" />
        </mxCell>
        <mxCell id="iR7yz01aufCSReRVloAO-22" value="" style="group" parent="iR7yz01aufCSReRVloAO-18" vertex="1" connectable="0">
          <mxGeometry width="50" height="50" as="geometry" />
        </mxCell>
        <mxCell id="iR7yz01aufCSReRVloAO-23" value="&lt;font style=&quot;font-size: 5px;&quot;&gt;Code changes&lt;/font&gt;" style="text;html=1;align=center;verticalAlign=middle;whiteSpace=wrap;rounded=0;" parent="iR7yz01aufCSReRVloAO-22" vertex="1">
          <mxGeometry width="50" height="20" as="geometry" />
        </mxCell>
        <mxCell id="iR7yz01aufCSReRVloAO-24" value="&lt;font style=&quot;font-size: 5px;&quot;&gt;Code changes&lt;/font&gt;" style="text;html=1;align=center;verticalAlign=middle;whiteSpace=wrap;rounded=0;container=1;" parent="iR7yz01aufCSReRVloAO-22" vertex="1">
          <mxGeometry y="30" width="50" height="20" as="geometry" />
        </mxCell>
        <mxCell id="iR7yz01aufCSReRVloAO-25" value="" style="endArrow=classic;html=1;rounded=0;exitX=1;exitY=0.5;exitDx=0;exitDy=0;entryX=0;entryY=0.25;entryDx=0;entryDy=0;" parent="iR7yz01aufCSReRVloAO-15" source="iR7yz01aufCSReRVloAO-20" target="iR7yz01aufCSReRVloAO-16" edge="1">
          <mxGeometry width="50" height="50" relative="1" as="geometry">
            <mxPoint x="120" y="-40" as="sourcePoint" />
            <mxPoint x="150" y="-40" as="targetPoint" />
          </mxGeometry>
        </mxCell>
        <mxCell id="iR7yz01aufCSReRVloAO-26" value="" style="endArrow=classic;html=1;rounded=0;exitX=0.969;exitY=0.515;exitDx=0;exitDy=0;entryX=0.014;entryY=0.644;entryDx=0;entryDy=0;exitPerimeter=0;entryPerimeter=0;" parent="iR7yz01aufCSReRVloAO-15" source="iR7yz01aufCSReRVloAO-21" target="iR7yz01aufCSReRVloAO-16" edge="1">
          <mxGeometry width="50" height="50" relative="1" as="geometry">
            <mxPoint x="150" y="20" as="sourcePoint" />
            <mxPoint x="200" y="23" as="targetPoint" />
          </mxGeometry>
        </mxCell>
        <mxCell id="iR7yz01aufCSReRVloAO-27" value="" style="edgeStyle=orthogonalEdgeStyle;rounded=0;orthogonalLoop=1;jettySize=auto;html=1;" parent="1" source="iR7yz01aufCSReRVloAO-4" target="iR7yz01aufCSReRVloAO-16" edge="1">
          <mxGeometry relative="1" as="geometry" />
        </mxCell>
        <mxCell id="iR7yz01aufCSReRVloAO-28" value="" style="group;fillColor=#d5e8d4;strokeColor=#82b366;" parent="1" vertex="1" connectable="0">
          <mxGeometry x="190" y="1150" width="260" height="70" as="geometry" />
        </mxCell>
        <mxCell id="iR7yz01aufCSReRVloAO-29" value="COMMIT&lt;br&gt;{26c27ba}&lt;br&gt;Assaf Shai&lt;br&gt;14.9" style="rounded=0;whiteSpace=wrap;html=1;" parent="iR7yz01aufCSReRVloAO-28" vertex="1">
          <mxGeometry x="150" width="110" height="70" as="geometry" />
        </mxCell>
        <mxCell id="iR7yz01aufCSReRVloAO-30" value="" style="group" parent="iR7yz01aufCSReRVloAO-28" vertex="1" connectable="0">
          <mxGeometry width="120" height="60" as="geometry" />
        </mxCell>
        <mxCell id="iR7yz01aufCSReRVloAO-31" value="" style="group" parent="iR7yz01aufCSReRVloAO-30" vertex="1" connectable="0">
          <mxGeometry width="120" height="60" as="geometry" />
        </mxCell>
        <mxCell id="iR7yz01aufCSReRVloAO-32" value="" style="group" parent="iR7yz01aufCSReRVloAO-31" vertex="1" connectable="0">
          <mxGeometry x="60" width="60" height="60" as="geometry" />
        </mxCell>
        <mxCell id="iR7yz01aufCSReRVloAO-33" value="File 5" style="text;html=1;align=center;verticalAlign=middle;whiteSpace=wrap;rounded=0;" parent="iR7yz01aufCSReRVloAO-32" vertex="1">
          <mxGeometry width="60" height="30" as="geometry" />
        </mxCell>
        <mxCell id="iR7yz01aufCSReRVloAO-34" value="File 1" style="text;html=1;align=center;verticalAlign=middle;whiteSpace=wrap;rounded=0;" parent="iR7yz01aufCSReRVloAO-32" vertex="1">
          <mxGeometry y="30" width="60" height="30" as="geometry" />
        </mxCell>
        <mxCell id="iR7yz01aufCSReRVloAO-35" value="" style="group" parent="iR7yz01aufCSReRVloAO-31" vertex="1" connectable="0">
          <mxGeometry width="50" height="50" as="geometry" />
        </mxCell>
        <mxCell id="iR7yz01aufCSReRVloAO-36" value="&lt;font style=&quot;font-size: 5px;&quot;&gt;Code changes&lt;/font&gt;" style="text;html=1;align=center;verticalAlign=middle;whiteSpace=wrap;rounded=0;" parent="iR7yz01aufCSReRVloAO-35" vertex="1">
          <mxGeometry width="50" height="20" as="geometry" />
        </mxCell>
        <mxCell id="iR7yz01aufCSReRVloAO-37" value="&lt;font style=&quot;font-size: 5px;&quot;&gt;Code changes&lt;/font&gt;" style="text;html=1;align=center;verticalAlign=middle;whiteSpace=wrap;rounded=0;container=1;" parent="iR7yz01aufCSReRVloAO-35" vertex="1">
          <mxGeometry y="30" width="50" height="20" as="geometry" />
        </mxCell>
        <mxCell id="iR7yz01aufCSReRVloAO-38" value="" style="endArrow=classic;html=1;rounded=0;exitX=1;exitY=0.5;exitDx=0;exitDy=0;entryX=0;entryY=0.25;entryDx=0;entryDy=0;" parent="iR7yz01aufCSReRVloAO-28" source="iR7yz01aufCSReRVloAO-33" target="iR7yz01aufCSReRVloAO-29" edge="1">
          <mxGeometry width="50" height="50" relative="1" as="geometry">
            <mxPoint x="120" y="-40" as="sourcePoint" />
            <mxPoint x="150" y="-40" as="targetPoint" />
          </mxGeometry>
        </mxCell>
        <mxCell id="iR7yz01aufCSReRVloAO-39" value="" style="endArrow=classic;html=1;rounded=0;exitX=0.969;exitY=0.515;exitDx=0;exitDy=0;entryX=0.014;entryY=0.644;entryDx=0;entryDy=0;exitPerimeter=0;entryPerimeter=0;" parent="iR7yz01aufCSReRVloAO-28" source="iR7yz01aufCSReRVloAO-34" target="iR7yz01aufCSReRVloAO-29" edge="1">
          <mxGeometry width="50" height="50" relative="1" as="geometry">
            <mxPoint x="150" y="20" as="sourcePoint" />
            <mxPoint x="200" y="23" as="targetPoint" />
          </mxGeometry>
        </mxCell>
        <mxCell id="iR7yz01aufCSReRVloAO-40" value="" style="edgeStyle=orthogonalEdgeStyle;rounded=0;orthogonalLoop=1;jettySize=auto;html=1;" parent="1" source="iR7yz01aufCSReRVloAO-16" target="iR7yz01aufCSReRVloAO-29" edge="1">
          <mxGeometry relative="1" as="geometry" />
        </mxCell>
        <mxCell id="iR7yz01aufCSReRVloAO-43" value="" style="endArrow=classic;html=1;rounded=0;" parent="1" edge="1">
          <mxGeometry width="50" height="50" relative="1" as="geometry">
            <mxPoint x="120" y="1400" as="sourcePoint" />
            <mxPoint x="120" y="940" as="targetPoint" />
          </mxGeometry>
        </mxCell>
        <mxCell id="iR7yz01aufCSReRVloAO-44" value="Time&lt;br&gt;Master Branch" style="text;html=1;align=center;verticalAlign=middle;whiteSpace=wrap;rounded=0;fontStyle=1" parent="1" vertex="1">
          <mxGeometry x="20" y="940" width="100" height="30" as="geometry" />
        </mxCell>
        <mxCell id="iR7yz01aufCSReRVloAO-45" value="Current" style="text;html=1;align=center;verticalAlign=middle;whiteSpace=wrap;rounded=0;" parent="1" vertex="1">
          <mxGeometry x="90" y="915" width="60" height="30" as="geometry" />
        </mxCell>
        <mxCell id="iR7yz01aufCSReRVloAO-46" value="Git Init" style="text;html=1;align=center;verticalAlign=middle;whiteSpace=wrap;rounded=0;" parent="1" vertex="1">
          <mxGeometry x="90" y="1400" width="60" height="30" as="geometry" />
        </mxCell>
        <mxCell id="iR7yz01aufCSReRVloAO-48" value="" style="endArrow=classic;html=1;rounded=0;" parent="1" edge="1">
          <mxGeometry width="50" height="50" relative="1" as="geometry">
            <mxPoint x="510.00000000000006" y="1220" as="sourcePoint" />
            <mxPoint x="510" y="930" as="targetPoint" />
          </mxGeometry>
        </mxCell>
        <mxCell id="iR7yz01aufCSReRVloAO-49" value="Other Time series" style="edgeLabel;html=1;align=center;verticalAlign=middle;resizable=0;points=[];" parent="iR7yz01aufCSReRVloAO-48" vertex="1" connectable="0">
          <mxGeometry x="0.4023" relative="1" as="geometry">
            <mxPoint x="10" y="-107" as="offset" />
          </mxGeometry>
        </mxCell>
        <mxCell id="iR7yz01aufCSReRVloAO-105" value="Version 1" style="edgeLabel;html=1;align=center;verticalAlign=middle;resizable=0;points=[];fontStyle=1" parent="iR7yz01aufCSReRVloAO-48" vertex="1" connectable="0">
          <mxGeometry x="0.4155" relative="1" as="geometry">
            <mxPoint x="160" y="-245" as="offset" />
          </mxGeometry>
        </mxCell>
        <mxCell id="iR7yz01aufCSReRVloAO-52" value="" style="group;fillColor=#d5e8d4;strokeColor=#82b366;" parent="1" vertex="1" connectable="0">
          <mxGeometry x="530" y="1150" width="260" height="70" as="geometry" />
        </mxCell>
        <mxCell id="iR7yz01aufCSReRVloAO-53" value="COMMIT&lt;br&gt;{26c27ba}&lt;br&gt;Assaf Shai&lt;br&gt;14.9" style="rounded=0;whiteSpace=wrap;html=1;" parent="iR7yz01aufCSReRVloAO-52" vertex="1">
          <mxGeometry x="150" width="110" height="70" as="geometry" />
        </mxCell>
        <mxCell id="iR7yz01aufCSReRVloAO-54" value="" style="group" parent="iR7yz01aufCSReRVloAO-52" vertex="1" connectable="0">
          <mxGeometry width="120" height="60" as="geometry" />
        </mxCell>
        <mxCell id="iR7yz01aufCSReRVloAO-55" value="" style="group" parent="iR7yz01aufCSReRVloAO-54" vertex="1" connectable="0">
          <mxGeometry width="120" height="60" as="geometry" />
        </mxCell>
        <mxCell id="iR7yz01aufCSReRVloAO-56" value="" style="group" parent="iR7yz01aufCSReRVloAO-55" vertex="1" connectable="0">
          <mxGeometry x="60" width="60" height="60" as="geometry" />
        </mxCell>
        <mxCell id="iR7yz01aufCSReRVloAO-57" value="File 5" style="text;html=1;align=center;verticalAlign=middle;whiteSpace=wrap;rounded=0;" parent="iR7yz01aufCSReRVloAO-56" vertex="1">
          <mxGeometry width="60" height="30" as="geometry" />
        </mxCell>
        <mxCell id="iR7yz01aufCSReRVloAO-58" value="File 1" style="text;html=1;align=center;verticalAlign=middle;whiteSpace=wrap;rounded=0;" parent="iR7yz01aufCSReRVloAO-56" vertex="1">
          <mxGeometry y="30" width="60" height="30" as="geometry" />
        </mxCell>
        <mxCell id="iR7yz01aufCSReRVloAO-59" value="" style="group" parent="iR7yz01aufCSReRVloAO-55" vertex="1" connectable="0">
          <mxGeometry width="50" height="50" as="geometry" />
        </mxCell>
        <mxCell id="iR7yz01aufCSReRVloAO-60" value="&lt;font style=&quot;font-size: 5px;&quot;&gt;Code changes&lt;/font&gt;" style="text;html=1;align=center;verticalAlign=middle;whiteSpace=wrap;rounded=0;" parent="iR7yz01aufCSReRVloAO-59" vertex="1">
          <mxGeometry width="50" height="20" as="geometry" />
        </mxCell>
        <mxCell id="iR7yz01aufCSReRVloAO-61" value="&lt;font style=&quot;font-size: 5px;&quot;&gt;Code changes&lt;/font&gt;" style="text;html=1;align=center;verticalAlign=middle;whiteSpace=wrap;rounded=0;container=1;" parent="iR7yz01aufCSReRVloAO-59" vertex="1">
          <mxGeometry y="30" width="50" height="20" as="geometry" />
        </mxCell>
        <mxCell id="iR7yz01aufCSReRVloAO-62" value="" style="endArrow=classic;html=1;rounded=0;exitX=1;exitY=0.5;exitDx=0;exitDy=0;entryX=0;entryY=0.25;entryDx=0;entryDy=0;" parent="iR7yz01aufCSReRVloAO-52" source="iR7yz01aufCSReRVloAO-57" target="iR7yz01aufCSReRVloAO-53" edge="1">
          <mxGeometry width="50" height="50" relative="1" as="geometry">
            <mxPoint x="120" y="-40" as="sourcePoint" />
            <mxPoint x="150" y="-40" as="targetPoint" />
          </mxGeometry>
        </mxCell>
        <mxCell id="iR7yz01aufCSReRVloAO-63" value="" style="endArrow=classic;html=1;rounded=0;exitX=0.969;exitY=0.515;exitDx=0;exitDy=0;entryX=0.014;entryY=0.644;entryDx=0;entryDy=0;exitPerimeter=0;entryPerimeter=0;" parent="iR7yz01aufCSReRVloAO-52" source="iR7yz01aufCSReRVloAO-58" target="iR7yz01aufCSReRVloAO-53" edge="1">
          <mxGeometry width="50" height="50" relative="1" as="geometry">
            <mxPoint x="150" y="20" as="sourcePoint" />
            <mxPoint x="200" y="23" as="targetPoint" />
          </mxGeometry>
        </mxCell>
        <mxCell id="iR7yz01aufCSReRVloAO-64" value="" style="edgeStyle=orthogonalEdgeStyle;rounded=0;orthogonalLoop=1;jettySize=auto;html=1;" parent="1" source="iR7yz01aufCSReRVloAO-29" edge="1">
          <mxGeometry relative="1" as="geometry">
            <mxPoint x="500" y="1185" as="targetPoint" />
          </mxGeometry>
        </mxCell>
        <mxCell id="iR7yz01aufCSReRVloAO-66" value="" style="group;fillColor=#dae8fc;strokeColor=#6c8ebf;" parent="1" vertex="1" connectable="0">
          <mxGeometry x="530" y="930" width="260" height="80" as="geometry" />
        </mxCell>
        <mxCell id="iR7yz01aufCSReRVloAO-67" value="COMMIT&lt;br&gt;{27aa7259}&lt;br&gt;Assaf Shai&lt;br&gt;15&lt;span style=&quot;background-color: transparent; color: light-dark(rgb(0, 0, 0), rgb(255, 255, 255));&quot;&gt;.9&lt;/span&gt;" style="rounded=0;whiteSpace=wrap;html=1;" parent="iR7yz01aufCSReRVloAO-66" vertex="1">
          <mxGeometry x="150" width="110" height="70" as="geometry" />
        </mxCell>
        <mxCell id="iR7yz01aufCSReRVloAO-68" value="" style="group" parent="iR7yz01aufCSReRVloAO-66" vertex="1" connectable="0">
          <mxGeometry width="120" height="60" as="geometry" />
        </mxCell>
        <mxCell id="iR7yz01aufCSReRVloAO-69" value="" style="group" parent="iR7yz01aufCSReRVloAO-68" vertex="1" connectable="0">
          <mxGeometry width="120" height="60" as="geometry" />
        </mxCell>
        <mxCell id="iR7yz01aufCSReRVloAO-73" value="" style="group" parent="iR7yz01aufCSReRVloAO-69" vertex="1" connectable="0">
          <mxGeometry width="50" height="50" as="geometry" />
        </mxCell>
        <mxCell id="iR7yz01aufCSReRVloAO-74" value="&lt;font style=&quot;font-size: 5px;&quot;&gt;Code changes&lt;/font&gt;" style="text;html=1;align=center;verticalAlign=middle;whiteSpace=wrap;rounded=0;" parent="iR7yz01aufCSReRVloAO-73" vertex="1">
          <mxGeometry width="50" height="20" as="geometry" />
        </mxCell>
        <mxCell id="iR7yz01aufCSReRVloAO-75" value="&lt;font style=&quot;font-size: 5px;&quot;&gt;Code changes&lt;/font&gt;" style="text;html=1;align=center;verticalAlign=middle;whiteSpace=wrap;rounded=0;container=1;" parent="iR7yz01aufCSReRVloAO-73" vertex="1">
          <mxGeometry y="30" width="50" height="20" as="geometry" />
        </mxCell>
        <mxCell id="iR7yz01aufCSReRVloAO-76" value="" style="endArrow=classic;html=1;rounded=0;exitX=1;exitY=0.5;exitDx=0;exitDy=0;entryX=0;entryY=0.25;entryDx=0;entryDy=0;" parent="iR7yz01aufCSReRVloAO-66" source="iR7yz01aufCSReRVloAO-71" target="iR7yz01aufCSReRVloAO-67" edge="1">
          <mxGeometry width="50" height="50" relative="1" as="geometry">
            <mxPoint x="120" y="-40" as="sourcePoint" />
            <mxPoint x="150" y="-40" as="targetPoint" />
          </mxGeometry>
        </mxCell>
        <mxCell id="iR7yz01aufCSReRVloAO-77" value="" style="endArrow=classic;html=1;rounded=0;exitX=0.969;exitY=0.515;exitDx=0;exitDy=0;entryX=0.014;entryY=0.644;entryDx=0;entryDy=0;exitPerimeter=0;entryPerimeter=0;" parent="iR7yz01aufCSReRVloAO-66" target="iR7yz01aufCSReRVloAO-67" edge="1">
          <mxGeometry width="50" height="50" relative="1" as="geometry">
            <mxPoint x="118.1400000000001" y="45.450000000000045" as="sourcePoint" />
            <mxPoint x="200" y="23" as="targetPoint" />
          </mxGeometry>
        </mxCell>
        <mxCell id="iR7yz01aufCSReRVloAO-70" value="" style="group" parent="iR7yz01aufCSReRVloAO-66" vertex="1" connectable="0">
          <mxGeometry x="60" y="20" width="60" height="60" as="geometry" />
        </mxCell>
        <mxCell id="iR7yz01aufCSReRVloAO-71" value="version1_code.py" style="text;html=1;align=center;verticalAlign=middle;whiteSpace=wrap;rounded=0;" parent="iR7yz01aufCSReRVloAO-70" vertex="1">
          <mxGeometry width="60" height="30" as="geometry" />
        </mxCell>
        <mxCell id="iR7yz01aufCSReRVloAO-78" value="" style="edgeStyle=orthogonalEdgeStyle;rounded=0;orthogonalLoop=1;jettySize=auto;html=1;" parent="1" source="iR7yz01aufCSReRVloAO-53" target="iR7yz01aufCSReRVloAO-67" edge="1">
          <mxGeometry relative="1" as="geometry" />
        </mxCell>
        <mxCell id="iR7yz01aufCSReRVloAO-79" value="" style="group;fillColor=#e1d5e7;strokeColor=#9673a6;" parent="1" vertex="1" connectable="0">
          <mxGeometry x="190" y="1050" width="260" height="70" as="geometry" />
        </mxCell>
        <mxCell id="iR7yz01aufCSReRVloAO-80" value="COMMIT&lt;br&gt;{3f9e8ec3}&lt;br&gt;Assaf Shai&lt;br&gt;14.9" style="rounded=0;whiteSpace=wrap;html=1;" parent="iR7yz01aufCSReRVloAO-79" vertex="1">
          <mxGeometry x="150" width="110" height="70" as="geometry" />
        </mxCell>
        <mxCell id="iR7yz01aufCSReRVloAO-81" value="" style="group" parent="iR7yz01aufCSReRVloAO-79" vertex="1" connectable="0">
          <mxGeometry x="-10" y="-5" width="120" height="60" as="geometry" />
        </mxCell>
        <mxCell id="iR7yz01aufCSReRVloAO-82" value="" style="group" parent="iR7yz01aufCSReRVloAO-81" vertex="1" connectable="0">
          <mxGeometry width="120" height="60" as="geometry" />
        </mxCell>
        <mxCell id="iR7yz01aufCSReRVloAO-83" value="" style="group" parent="iR7yz01aufCSReRVloAO-82" vertex="1" connectable="0">
          <mxGeometry x="60" width="60" height="60" as="geometry" />
        </mxCell>
        <mxCell id="iR7yz01aufCSReRVloAO-85" value="Master_Code/masterCode.py" style="text;html=1;align=center;verticalAlign=middle;whiteSpace=wrap;rounded=0;" parent="iR7yz01aufCSReRVloAO-83" vertex="1">
          <mxGeometry x="-50" width="130" height="60" as="geometry" />
        </mxCell>
        <mxCell id="iR7yz01aufCSReRVloAO-86" value="" style="group" parent="iR7yz01aufCSReRVloAO-82" vertex="1" connectable="0">
          <mxGeometry width="50" height="50" as="geometry" />
        </mxCell>
        <mxCell id="iR7yz01aufCSReRVloAO-87" value="&lt;font style=&quot;font-size: 5px;&quot;&gt;Code changes&lt;/font&gt;" style="text;html=1;align=center;verticalAlign=middle;whiteSpace=wrap;rounded=0;" parent="iR7yz01aufCSReRVloAO-86" vertex="1">
          <mxGeometry width="50" height="20" as="geometry" />
        </mxCell>
        <mxCell id="iR7yz01aufCSReRVloAO-88" value="&lt;font style=&quot;font-size: 5px;&quot;&gt;Code changes&lt;/font&gt;" style="text;html=1;align=center;verticalAlign=middle;whiteSpace=wrap;rounded=0;container=1;" parent="iR7yz01aufCSReRVloAO-86" vertex="1">
          <mxGeometry y="30" width="50" height="20" as="geometry" />
        </mxCell>
        <mxCell id="iR7yz01aufCSReRVloAO-110" style="edgeStyle=orthogonalEdgeStyle;rounded=0;orthogonalLoop=1;jettySize=auto;html=1;exitX=0.5;exitY=1;exitDx=0;exitDy=0;entryX=0.105;entryY=1.011;entryDx=0;entryDy=0;entryPerimeter=0;" parent="iR7yz01aufCSReRVloAO-82" source="iR7yz01aufCSReRVloAO-88" target="iR7yz01aufCSReRVloAO-85" edge="1">
          <mxGeometry relative="1" as="geometry" />
        </mxCell>
        <mxCell id="iR7yz01aufCSReRVloAO-90" value="" style="endArrow=classic;html=1;rounded=0;exitX=0.969;exitY=0.515;exitDx=0;exitDy=0;entryX=0.014;entryY=0.644;entryDx=0;entryDy=0;exitPerimeter=0;entryPerimeter=0;" parent="iR7yz01aufCSReRVloAO-79" source="iR7yz01aufCSReRVloAO-85" target="iR7yz01aufCSReRVloAO-80" edge="1">
          <mxGeometry width="50" height="50" relative="1" as="geometry">
            <mxPoint x="150" y="20" as="sourcePoint" />
            <mxPoint x="200" y="23" as="targetPoint" />
          </mxGeometry>
        </mxCell>
        <mxCell id="iR7yz01aufCSReRVloAO-91" value="" style="edgeStyle=orthogonalEdgeStyle;rounded=0;orthogonalLoop=1;jettySize=auto;html=1;" parent="1" source="iR7yz01aufCSReRVloAO-29" target="iR7yz01aufCSReRVloAO-80" edge="1">
          <mxGeometry relative="1" as="geometry" />
        </mxCell>
        <mxCell id="iR7yz01aufCSReRVloAO-107" value="" style="endArrow=none;html=1;rounded=0;fontStyle=1" parent="1" edge="1">
          <mxGeometry width="50" height="50" relative="1" as="geometry">
            <mxPoint x="90" y="1230" as="sourcePoint" />
            <mxPoint x="810" y="1230" as="targetPoint" />
          </mxGeometry>
        </mxCell>
        <mxCell id="iR7yz01aufCSReRVloAO-108" value="&lt;b&gt;HEAD&lt;/b&gt;" style="text;html=1;align=center;verticalAlign=middle;whiteSpace=wrap;rounded=0;" parent="1" vertex="1">
          <mxGeometry x="120" y="700" width="60" height="30" as="geometry" />
        </mxCell>
        <mxCell id="iR7yz01aufCSReRVloAO-109" value="Git branch Version1" style="text;html=1;align=center;verticalAlign=middle;whiteSpace=wrap;rounded=0;fontStyle=1" parent="1" vertex="1">
          <mxGeometry x="540" y="1230" width="130" height="30" as="geometry" />
        </mxCell>
        <mxCell id="iR7yz01aufCSReRVloAO-113" value="" style="group" parent="1" vertex="1" connectable="0">
          <mxGeometry x="620" y="1050" width="170" height="70" as="geometry" />
        </mxCell>
        <mxCell id="iR7yz01aufCSReRVloAO-114" value="" style="group" parent="iR7yz01aufCSReRVloAO-113" vertex="1" connectable="0">
          <mxGeometry width="170" height="70" as="geometry" />
        </mxCell>
        <mxCell id="iR7yz01aufCSReRVloAO-115" value="" style="group" parent="iR7yz01aufCSReRVloAO-114" vertex="1" connectable="0">
          <mxGeometry width="170" height="70" as="geometry" />
        </mxCell>
        <mxCell id="iR7yz01aufCSReRVloAO-116" value="&lt;font style=&quot;font-size: 5px;&quot;&gt;Code changes&lt;/font&gt;" style="text;html=1;align=center;verticalAlign=middle;whiteSpace=wrap;rounded=0;" parent="iR7yz01aufCSReRVloAO-115" vertex="1">
          <mxGeometry width="50" height="20" as="geometry" />
        </mxCell>
        <mxCell id="iR7yz01aufCSReRVloAO-117" value="&lt;font style=&quot;font-size: 5px;&quot;&gt;Code changes&lt;/font&gt;" style="text;html=1;align=center;verticalAlign=middle;whiteSpace=wrap;rounded=0;container=1;" parent="iR7yz01aufCSReRVloAO-115" vertex="1" collapsed="1">
          <mxGeometry y="30" width="70" height="30" as="geometry">
            <mxRectangle y="30" width="50" height="20" as="alternateBounds" />
          </mxGeometry>
        </mxCell>
        <mxCell id="iR7yz01aufCSReRVloAO-163" value="" style="group;fillColor=#e1d5e7;strokeColor=#9673a6;" parent="iR7yz01aufCSReRVloAO-115" vertex="1" connectable="0">
          <mxGeometry x="-90" width="260" height="70" as="geometry" />
        </mxCell>
        <mxCell id="iR7yz01aufCSReRVloAO-164" value="COMMIT&lt;br&gt;{3f9e8ec3}&lt;br&gt;Assaf Shai&lt;br&gt;14.9" style="rounded=0;whiteSpace=wrap;html=1;" parent="iR7yz01aufCSReRVloAO-163" vertex="1">
          <mxGeometry x="150" width="110" height="70" as="geometry" />
        </mxCell>
        <mxCell id="iR7yz01aufCSReRVloAO-165" value="" style="group" parent="iR7yz01aufCSReRVloAO-163" vertex="1" connectable="0">
          <mxGeometry x="-10" y="-5" width="120" height="60" as="geometry" />
        </mxCell>
        <mxCell id="iR7yz01aufCSReRVloAO-166" value="" style="group" parent="iR7yz01aufCSReRVloAO-165" vertex="1" connectable="0">
          <mxGeometry width="120" height="60" as="geometry" />
        </mxCell>
        <mxCell id="iR7yz01aufCSReRVloAO-167" value="" style="group" parent="iR7yz01aufCSReRVloAO-166" vertex="1" connectable="0">
          <mxGeometry x="60" width="60" height="60" as="geometry" />
        </mxCell>
        <mxCell id="iR7yz01aufCSReRVloAO-168" value="Master_Code/masterCode.py" style="text;html=1;align=center;verticalAlign=middle;whiteSpace=wrap;rounded=0;" parent="iR7yz01aufCSReRVloAO-167" vertex="1">
          <mxGeometry x="-50" width="130" height="60" as="geometry" />
        </mxCell>
        <mxCell id="iR7yz01aufCSReRVloAO-169" value="" style="group" parent="iR7yz01aufCSReRVloAO-166" vertex="1" connectable="0">
          <mxGeometry width="50" height="50" as="geometry" />
        </mxCell>
        <mxCell id="iR7yz01aufCSReRVloAO-170" value="&lt;font style=&quot;font-size: 5px;&quot;&gt;Code changes&lt;/font&gt;" style="text;html=1;align=center;verticalAlign=middle;whiteSpace=wrap;rounded=0;" parent="iR7yz01aufCSReRVloAO-169" vertex="1">
          <mxGeometry width="50" height="20" as="geometry" />
        </mxCell>
        <mxCell id="iR7yz01aufCSReRVloAO-171" value="&lt;font style=&quot;font-size: 5px;&quot;&gt;Code changes&lt;/font&gt;" style="text;html=1;align=center;verticalAlign=middle;whiteSpace=wrap;rounded=0;container=1;" parent="iR7yz01aufCSReRVloAO-169" vertex="1">
          <mxGeometry y="30" width="50" height="20" as="geometry" />
        </mxCell>
        <mxCell id="iR7yz01aufCSReRVloAO-172" style="edgeStyle=orthogonalEdgeStyle;rounded=0;orthogonalLoop=1;jettySize=auto;html=1;exitX=0.5;exitY=1;exitDx=0;exitDy=0;entryX=0.105;entryY=1.011;entryDx=0;entryDy=0;entryPerimeter=0;" parent="iR7yz01aufCSReRVloAO-166" source="iR7yz01aufCSReRVloAO-171" target="iR7yz01aufCSReRVloAO-168" edge="1">
          <mxGeometry relative="1" as="geometry" />
        </mxCell>
        <mxCell id="iR7yz01aufCSReRVloAO-173" value="" style="endArrow=classic;html=1;rounded=0;exitX=0.969;exitY=0.515;exitDx=0;exitDy=0;entryX=0.014;entryY=0.644;entryDx=0;entryDy=0;exitPerimeter=0;entryPerimeter=0;" parent="iR7yz01aufCSReRVloAO-163" source="iR7yz01aufCSReRVloAO-168" target="iR7yz01aufCSReRVloAO-164" edge="1">
          <mxGeometry width="50" height="50" relative="1" as="geometry">
            <mxPoint x="150" y="20" as="sourcePoint" />
            <mxPoint x="200" y="23" as="targetPoint" />
          </mxGeometry>
        </mxCell>
        <mxCell id="iR7yz01aufCSReRVloAO-118" value="" style="group;fillColor=#dae8fc;strokeColor=#6c8ebf;" parent="1" vertex="1" connectable="0">
          <mxGeometry x="190" y="930" width="260" height="80" as="geometry" />
        </mxCell>
        <mxCell id="iR7yz01aufCSReRVloAO-134" value="" style="edgeStyle=orthogonalEdgeStyle;rounded=0;orthogonalLoop=1;jettySize=auto;html=1;" parent="iR7yz01aufCSReRVloAO-118" source="iR7yz01aufCSReRVloAO-119" target="iR7yz01aufCSReRVloAO-128" edge="1">
          <mxGeometry relative="1" as="geometry" />
        </mxCell>
        <mxCell id="iR7yz01aufCSReRVloAO-119" value="COMMIT&lt;br&gt;{27aa7259}&lt;br&gt;Assaf Shai&lt;br&gt;15&lt;span style=&quot;background-color: transparent; color: light-dark(rgb(0, 0, 0), rgb(255, 255, 255));&quot;&gt;.9&lt;/span&gt;" style="rounded=0;whiteSpace=wrap;html=1;" parent="iR7yz01aufCSReRVloAO-118" vertex="1">
          <mxGeometry x="150" width="110" height="70" as="geometry" />
        </mxCell>
        <mxCell id="iR7yz01aufCSReRVloAO-120" value="" style="group" parent="iR7yz01aufCSReRVloAO-118" vertex="1" connectable="0">
          <mxGeometry width="120" height="60" as="geometry" />
        </mxCell>
        <mxCell id="iR7yz01aufCSReRVloAO-121" value="" style="group" parent="iR7yz01aufCSReRVloAO-120" vertex="1" connectable="0">
          <mxGeometry width="120" height="60" as="geometry" />
        </mxCell>
        <mxCell id="iR7yz01aufCSReRVloAO-122" value="" style="group" parent="iR7yz01aufCSReRVloAO-121" vertex="1" connectable="0">
          <mxGeometry width="50" height="50" as="geometry" />
        </mxCell>
        <mxCell id="iR7yz01aufCSReRVloAO-123" value="&lt;font style=&quot;font-size: 5px;&quot;&gt;Code changes&lt;/font&gt;" style="text;html=1;align=center;verticalAlign=middle;whiteSpace=wrap;rounded=0;" parent="iR7yz01aufCSReRVloAO-122" vertex="1">
          <mxGeometry width="50" height="20" as="geometry" />
        </mxCell>
        <mxCell id="iR7yz01aufCSReRVloAO-124" value="&lt;font style=&quot;font-size: 5px;&quot;&gt;Code changes&lt;/font&gt;" style="text;html=1;align=center;verticalAlign=middle;whiteSpace=wrap;rounded=0;container=1;" parent="iR7yz01aufCSReRVloAO-122" vertex="1">
          <mxGeometry y="30" width="50" height="20" as="geometry" />
        </mxCell>
        <mxCell id="iR7yz01aufCSReRVloAO-125" value="" style="endArrow=classic;html=1;rounded=0;exitX=1;exitY=0.5;exitDx=0;exitDy=0;entryX=0;entryY=0.25;entryDx=0;entryDy=0;" parent="iR7yz01aufCSReRVloAO-118" source="iR7yz01aufCSReRVloAO-128" target="iR7yz01aufCSReRVloAO-119" edge="1">
          <mxGeometry width="50" height="50" relative="1" as="geometry">
            <mxPoint x="120" y="-40" as="sourcePoint" />
            <mxPoint x="150" y="-40" as="targetPoint" />
          </mxGeometry>
        </mxCell>
        <mxCell id="iR7yz01aufCSReRVloAO-126" value="" style="endArrow=classic;html=1;rounded=0;exitX=0.969;exitY=0.515;exitDx=0;exitDy=0;entryX=0.014;entryY=0.644;entryDx=0;entryDy=0;exitPerimeter=0;entryPerimeter=0;" parent="iR7yz01aufCSReRVloAO-118" target="iR7yz01aufCSReRVloAO-119" edge="1">
          <mxGeometry width="50" height="50" relative="1" as="geometry">
            <mxPoint x="118.1400000000001" y="45.450000000000045" as="sourcePoint" />
            <mxPoint x="200" y="23" as="targetPoint" />
          </mxGeometry>
        </mxCell>
        <mxCell id="iR7yz01aufCSReRVloAO-127" value="" style="group" parent="iR7yz01aufCSReRVloAO-118" vertex="1" connectable="0">
          <mxGeometry x="60" y="20" width="60" height="60" as="geometry" />
        </mxCell>
        <mxCell id="iR7yz01aufCSReRVloAO-128" value="version1_code.py" style="text;html=1;align=center;verticalAlign=middle;whiteSpace=wrap;rounded=0;" parent="iR7yz01aufCSReRVloAO-127" vertex="1">
          <mxGeometry width="60" height="30" as="geometry" />
        </mxCell>
        <mxCell id="iR7yz01aufCSReRVloAO-131" value="" style="edgeStyle=orthogonalEdgeStyle;rounded=0;orthogonalLoop=1;jettySize=auto;html=1;" parent="1" source="iR7yz01aufCSReRVloAO-80" target="iR7yz01aufCSReRVloAO-119" edge="1">
          <mxGeometry relative="1" as="geometry" />
        </mxCell>
        <mxCell id="iR7yz01aufCSReRVloAO-132" value="" style="endArrow=classic;html=1;rounded=0;entryX=1.003;entryY=0.617;entryDx=0;entryDy=0;entryPerimeter=0;exitX=0;exitY=0;exitDx=0;exitDy=0;" parent="1" source="iR7yz01aufCSReRVloAO-67" target="iR7yz01aufCSReRVloAO-119" edge="1">
          <mxGeometry width="50" height="50" relative="1" as="geometry">
            <mxPoint x="720" y="1020" as="sourcePoint" />
            <mxPoint x="770" y="970" as="targetPoint" />
            <Array as="points">
              <mxPoint x="660" y="973" />
            </Array>
          </mxGeometry>
        </mxCell>
        <mxCell id="iR7yz01aufCSReRVloAO-133" value="Merge Commits" style="text;html=1;align=center;verticalAlign=middle;whiteSpace=wrap;rounded=0;fontStyle=1" parent="1" vertex="1">
          <mxGeometry x="55" y="650" width="130" height="30" as="geometry" />
        </mxCell>
        <mxCell id="iR7yz01aufCSReRVloAO-162" value="" style="endArrow=classic;html=1;rounded=0;exitX=1;exitY=0.5;exitDx=0;exitDy=0;entryX=0.25;entryY=0;entryDx=0;entryDy=0;" parent="1" source="iR7yz01aufCSReRVloAO-80" target="iR7yz01aufCSReRVloAO-171" edge="1">
          <mxGeometry width="50" height="50" relative="1" as="geometry">
            <mxPoint x="480" y="1090" as="sourcePoint" />
            <mxPoint x="530" y="1040" as="targetPoint" />
            <Array as="points" />
          </mxGeometry>
        </mxCell>
        <mxCell id="iR7yz01aufCSReRVloAO-174" value="" style="group;fillColor=#f8cecc;strokeColor=#b85450;" parent="1" vertex="1" connectable="0">
          <mxGeometry x="190" y="800" width="260" height="80" as="geometry" />
        </mxCell>
        <mxCell id="iR7yz01aufCSReRVloAO-175" value="" style="edgeStyle=orthogonalEdgeStyle;rounded=0;orthogonalLoop=1;jettySize=auto;html=1;" parent="iR7yz01aufCSReRVloAO-174" source="iR7yz01aufCSReRVloAO-176" target="iR7yz01aufCSReRVloAO-185" edge="1">
          <mxGeometry relative="1" as="geometry" />
        </mxCell>
        <mxCell id="iR7yz01aufCSReRVloAO-176" value="COMMIT&lt;br&gt;{bd2cb5aa}&lt;br&gt;Assaf Shai&lt;br&gt;15&lt;span style=&quot;background-color: transparent; color: light-dark(rgb(0, 0, 0), rgb(255, 255, 255));&quot;&gt;.9&lt;/span&gt;" style="rounded=0;whiteSpace=wrap;html=1;" parent="iR7yz01aufCSReRVloAO-174" vertex="1">
          <mxGeometry x="150" width="110" height="70" as="geometry" />
        </mxCell>
        <mxCell id="iR7yz01aufCSReRVloAO-177" value="" style="group" parent="iR7yz01aufCSReRVloAO-174" vertex="1" connectable="0">
          <mxGeometry width="120" height="60" as="geometry" />
        </mxCell>
        <mxCell id="iR7yz01aufCSReRVloAO-178" value="" style="group" parent="iR7yz01aufCSReRVloAO-177" vertex="1" connectable="0">
          <mxGeometry width="120" height="60" as="geometry" />
        </mxCell>
        <mxCell id="iR7yz01aufCSReRVloAO-179" value="" style="group" parent="iR7yz01aufCSReRVloAO-178" vertex="1" connectable="0">
          <mxGeometry width="50" height="50" as="geometry" />
        </mxCell>
        <mxCell id="iR7yz01aufCSReRVloAO-180" value="&lt;font style=&quot;font-size: 5px;&quot;&gt;Code changes&lt;/font&gt;" style="text;html=1;align=center;verticalAlign=middle;whiteSpace=wrap;rounded=0;" parent="iR7yz01aufCSReRVloAO-179" vertex="1">
          <mxGeometry width="50" height="20" as="geometry" />
        </mxCell>
        <mxCell id="iR7yz01aufCSReRVloAO-181" value="&lt;font style=&quot;font-size: 5px;&quot;&gt;Code changes&lt;/font&gt;" style="text;html=1;align=center;verticalAlign=middle;whiteSpace=wrap;rounded=0;container=1;" parent="iR7yz01aufCSReRVloAO-179" vertex="1">
          <mxGeometry y="30" width="50" height="20" as="geometry" />
        </mxCell>
        <mxCell id="iR7yz01aufCSReRVloAO-182" value="" style="endArrow=classic;html=1;rounded=0;exitX=1;exitY=0.5;exitDx=0;exitDy=0;entryX=0;entryY=0.25;entryDx=0;entryDy=0;" parent="iR7yz01aufCSReRVloAO-174" source="iR7yz01aufCSReRVloAO-185" target="iR7yz01aufCSReRVloAO-176" edge="1">
          <mxGeometry width="50" height="50" relative="1" as="geometry">
            <mxPoint x="120" y="-40" as="sourcePoint" />
            <mxPoint x="150" y="-40" as="targetPoint" />
          </mxGeometry>
        </mxCell>
        <mxCell id="iR7yz01aufCSReRVloAO-183" value="" style="endArrow=classic;html=1;rounded=0;exitX=0.969;exitY=0.515;exitDx=0;exitDy=0;entryX=0.014;entryY=0.644;entryDx=0;entryDy=0;exitPerimeter=0;entryPerimeter=0;" parent="iR7yz01aufCSReRVloAO-174" target="iR7yz01aufCSReRVloAO-176" edge="1">
          <mxGeometry width="50" height="50" relative="1" as="geometry">
            <mxPoint x="118.1400000000001" y="45.450000000000045" as="sourcePoint" />
            <mxPoint x="200" y="23" as="targetPoint" />
          </mxGeometry>
        </mxCell>
        <mxCell id="iR7yz01aufCSReRVloAO-184" value="" style="group" parent="iR7yz01aufCSReRVloAO-174" vertex="1" connectable="0">
          <mxGeometry x="60" y="20" width="60" height="60" as="geometry" />
        </mxCell>
        <mxCell id="iR7yz01aufCSReRVloAO-185" value="version1_code.py" style="text;html=1;align=center;verticalAlign=middle;whiteSpace=wrap;rounded=0;" parent="iR7yz01aufCSReRVloAO-184" vertex="1">
          <mxGeometry width="60" height="30" as="geometry" />
        </mxCell>
        <mxCell id="iR7yz01aufCSReRVloAO-186" value="" style="group;fillColor=#fff2cc;strokeColor=#d6b656;" parent="1" vertex="1" connectable="0">
          <mxGeometry x="530" y="800" width="260" height="80" as="geometry" />
        </mxCell>
        <mxCell id="iR7yz01aufCSReRVloAO-187" value="COMMIT&lt;br&gt;{c1e61ad75}&lt;br&gt;Assaf Shai&lt;br&gt;15&lt;span style=&quot;background-color: transparent; color: light-dark(rgb(0, 0, 0), rgb(255, 255, 255));&quot;&gt;.9&lt;/span&gt;" style="rounded=0;whiteSpace=wrap;html=1;" parent="iR7yz01aufCSReRVloAO-186" vertex="1">
          <mxGeometry x="150" width="110" height="70" as="geometry" />
        </mxCell>
        <mxCell id="iR7yz01aufCSReRVloAO-188" value="" style="group" parent="iR7yz01aufCSReRVloAO-186" vertex="1" connectable="0">
          <mxGeometry width="120" height="60" as="geometry" />
        </mxCell>
        <mxCell id="iR7yz01aufCSReRVloAO-189" value="" style="group" parent="iR7yz01aufCSReRVloAO-188" vertex="1" connectable="0">
          <mxGeometry width="120" height="60" as="geometry" />
        </mxCell>
        <mxCell id="iR7yz01aufCSReRVloAO-190" value="" style="group" parent="iR7yz01aufCSReRVloAO-189" vertex="1" connectable="0">
          <mxGeometry width="50" height="50" as="geometry" />
        </mxCell>
        <mxCell id="iR7yz01aufCSReRVloAO-191" value="&lt;font style=&quot;font-size: 5px;&quot;&gt;Code changes&lt;/font&gt;" style="text;html=1;align=center;verticalAlign=middle;whiteSpace=wrap;rounded=0;" parent="iR7yz01aufCSReRVloAO-190" vertex="1">
          <mxGeometry width="50" height="20" as="geometry" />
        </mxCell>
        <mxCell id="iR7yz01aufCSReRVloAO-192" value="&lt;font style=&quot;font-size: 5px;&quot;&gt;Code changes&lt;/font&gt;" style="text;html=1;align=center;verticalAlign=middle;whiteSpace=wrap;rounded=0;container=1;" parent="iR7yz01aufCSReRVloAO-190" vertex="1">
          <mxGeometry y="30" width="50" height="20" as="geometry" />
        </mxCell>
        <mxCell id="iR7yz01aufCSReRVloAO-193" value="" style="endArrow=classic;html=1;rounded=0;exitX=1;exitY=0.5;exitDx=0;exitDy=0;entryX=0;entryY=0.25;entryDx=0;entryDy=0;" parent="iR7yz01aufCSReRVloAO-186" source="iR7yz01aufCSReRVloAO-196" target="iR7yz01aufCSReRVloAO-187" edge="1">
          <mxGeometry width="50" height="50" relative="1" as="geometry">
            <mxPoint x="120" y="-40" as="sourcePoint" />
            <mxPoint x="150" y="-40" as="targetPoint" />
          </mxGeometry>
        </mxCell>
        <mxCell id="iR7yz01aufCSReRVloAO-194" value="" style="endArrow=classic;html=1;rounded=0;exitX=0.969;exitY=0.515;exitDx=0;exitDy=0;entryX=0.014;entryY=0.644;entryDx=0;entryDy=0;exitPerimeter=0;entryPerimeter=0;" parent="iR7yz01aufCSReRVloAO-186" target="iR7yz01aufCSReRVloAO-187" edge="1">
          <mxGeometry width="50" height="50" relative="1" as="geometry">
            <mxPoint x="118.1400000000001" y="45.450000000000045" as="sourcePoint" />
            <mxPoint x="200" y="23" as="targetPoint" />
          </mxGeometry>
        </mxCell>
        <mxCell id="iR7yz01aufCSReRVloAO-195" value="" style="group" parent="iR7yz01aufCSReRVloAO-186" vertex="1" connectable="0">
          <mxGeometry x="60" y="20" width="60" height="60" as="geometry" />
        </mxCell>
        <mxCell id="iR7yz01aufCSReRVloAO-196" value="version1_code.py" style="text;html=1;align=center;verticalAlign=middle;whiteSpace=wrap;rounded=0;" parent="iR7yz01aufCSReRVloAO-195" vertex="1">
          <mxGeometry width="60" height="30" as="geometry" />
        </mxCell>
        <mxCell id="iR7yz01aufCSReRVloAO-198" value="" style="edgeStyle=orthogonalEdgeStyle;rounded=0;orthogonalLoop=1;jettySize=auto;html=1;" parent="1" source="iR7yz01aufCSReRVloAO-67" target="iR7yz01aufCSReRVloAO-187" edge="1">
          <mxGeometry relative="1" as="geometry" />
        </mxCell>
        <mxCell id="iR7yz01aufCSReRVloAO-199" value="" style="edgeStyle=orthogonalEdgeStyle;rounded=0;orthogonalLoop=1;jettySize=auto;html=1;" parent="1" source="iR7yz01aufCSReRVloAO-119" target="iR7yz01aufCSReRVloAO-176" edge="1">
          <mxGeometry relative="1" as="geometry" />
        </mxCell>
        <mxCell id="iR7yz01aufCSReRVloAO-200" value="" style="curved=1;endArrow=classic;html=1;rounded=0;entryX=1;entryY=0.5;entryDx=0;entryDy=0;exitX=0;exitY=0;exitDx=0;exitDy=0;" parent="1" source="iR7yz01aufCSReRVloAO-192" target="iR7yz01aufCSReRVloAO-176" edge="1">
          <mxGeometry width="50" height="50" relative="1" as="geometry">
            <mxPoint x="480" y="850" as="sourcePoint" />
            <mxPoint x="530" y="800" as="targetPoint" />
            <Array as="points">
              <mxPoint x="530" y="850" />
              <mxPoint x="500" y="810" />
              <mxPoint x="490" y="750" />
              <mxPoint x="480" y="800" />
            </Array>
          </mxGeometry>
        </mxCell>
        <mxCell id="iR7yz01aufCSReRVloAO-201" value="Conflict" style="edgeLabel;html=1;align=center;verticalAlign=middle;resizable=0;points=[];" parent="iR7yz01aufCSReRVloAO-200" vertex="1" connectable="0">
          <mxGeometry x="0.1802" y="2" relative="1" as="geometry">
            <mxPoint y="-14" as="offset" />
          </mxGeometry>
        </mxCell>
        <mxCell id="iR7yz01aufCSReRVloAO-204" value="" style="group;fillColor=#fff2cc;strokeColor=#d6b656;" parent="1" vertex="1" connectable="0">
          <mxGeometry x="535" y="660" width="260" height="80" as="geometry" />
        </mxCell>
        <mxCell id="iR7yz01aufCSReRVloAO-205" value="COMMIT&lt;br&gt;{bd2cb5aa}&lt;br&gt;Assaf Shai&lt;br&gt;15&lt;span style=&quot;background-color: transparent; color: light-dark(rgb(0, 0, 0), rgb(255, 255, 255));&quot;&gt;.9&lt;/span&gt;" style="rounded=0;whiteSpace=wrap;html=1;" parent="iR7yz01aufCSReRVloAO-204" vertex="1">
          <mxGeometry x="150" width="110" height="70" as="geometry" />
        </mxCell>
        <mxCell id="iR7yz01aufCSReRVloAO-206" value="" style="group" parent="iR7yz01aufCSReRVloAO-204" vertex="1" connectable="0">
          <mxGeometry width="120" height="80" as="geometry" />
        </mxCell>
        <mxCell id="iR7yz01aufCSReRVloAO-207" value="" style="group" parent="iR7yz01aufCSReRVloAO-206" vertex="1" connectable="0">
          <mxGeometry width="120" height="80" as="geometry" />
        </mxCell>
        <mxCell id="iR7yz01aufCSReRVloAO-208" value="" style="group" parent="iR7yz01aufCSReRVloAO-207" vertex="1" connectable="0">
          <mxGeometry width="100" height="80" as="geometry" />
        </mxCell>
        <mxCell id="iR7yz01aufCSReRVloAO-209" value="&lt;font style=&quot;font-size: 5px;&quot;&gt;Code changes&lt;/font&gt;" style="text;html=1;align=center;verticalAlign=middle;whiteSpace=wrap;rounded=0;" parent="iR7yz01aufCSReRVloAO-208" vertex="1">
          <mxGeometry width="50" height="20" as="geometry" />
        </mxCell>
        <mxCell id="iR7yz01aufCSReRVloAO-211" value="" style="endArrow=classic;html=1;rounded=0;exitX=1;exitY=0.5;exitDx=0;exitDy=0;entryX=0;entryY=0.25;entryDx=0;entryDy=0;" parent="iR7yz01aufCSReRVloAO-204" source="iR7yz01aufCSReRVloAO-214" target="iR7yz01aufCSReRVloAO-205" edge="1">
          <mxGeometry width="50" height="50" relative="1" as="geometry">
            <mxPoint x="120" y="-40" as="sourcePoint" />
            <mxPoint x="150" y="-40" as="targetPoint" />
          </mxGeometry>
        </mxCell>
        <mxCell id="iR7yz01aufCSReRVloAO-212" value="" style="endArrow=classic;html=1;rounded=0;exitX=0.969;exitY=0.515;exitDx=0;exitDy=0;entryX=0.014;entryY=0.644;entryDx=0;entryDy=0;exitPerimeter=0;entryPerimeter=0;" parent="iR7yz01aufCSReRVloAO-204" target="iR7yz01aufCSReRVloAO-205" edge="1">
          <mxGeometry width="50" height="50" relative="1" as="geometry">
            <mxPoint x="118.1400000000001" y="45.450000000000045" as="sourcePoint" />
            <mxPoint x="200" y="23" as="targetPoint" />
          </mxGeometry>
        </mxCell>
        <mxCell id="iR7yz01aufCSReRVloAO-213" value="" style="group" parent="iR7yz01aufCSReRVloAO-204" vertex="1" connectable="0">
          <mxGeometry x="60" y="20" width="60" height="60" as="geometry" />
        </mxCell>
        <mxCell id="iR7yz01aufCSReRVloAO-214" value="version1_code.py" style="text;html=1;align=center;verticalAlign=middle;whiteSpace=wrap;rounded=0;" parent="iR7yz01aufCSReRVloAO-213" vertex="1">
          <mxGeometry width="60" height="30" as="geometry" />
        </mxCell>
        <mxCell id="iR7yz01aufCSReRVloAO-216" value="" style="edgeStyle=orthogonalEdgeStyle;rounded=0;orthogonalLoop=1;jettySize=auto;html=1;entryX=0.5;entryY=1;entryDx=0;entryDy=0;" parent="1" target="iR7yz01aufCSReRVloAO-205" edge="1">
          <mxGeometry relative="1" as="geometry">
            <mxPoint x="490" y="770" as="sourcePoint" />
          </mxGeometry>
        </mxCell>
        <mxCell id="iR7yz01aufCSReRVloAO-217" value="Conflict resultion&lt;br&gt;Merge commit" style="text;html=1;align=center;verticalAlign=middle;whiteSpace=wrap;rounded=0;" parent="1" vertex="1">
          <mxGeometry x="55" y="730" width="150" height="30" as="geometry" />
        </mxCell>
        <mxCell id="iR7yz01aufCSReRVloAO-229" value="" style="group;fillColor=#fff2cc;strokeColor=#d6b656;" parent="1" vertex="1" connectable="0">
          <mxGeometry x="205" y="660" width="260" height="80" as="geometry" />
        </mxCell>
        <mxCell id="iR7yz01aufCSReRVloAO-230" value="COMMIT&lt;br&gt;{bd2cb5aa}&lt;br&gt;Assaf Shai&lt;br&gt;15&lt;span style=&quot;background-color: transparent; color: light-dark(rgb(0, 0, 0), rgb(255, 255, 255));&quot;&gt;.9&lt;/span&gt;" style="rounded=0;whiteSpace=wrap;html=1;" parent="iR7yz01aufCSReRVloAO-229" vertex="1">
          <mxGeometry x="150" width="110" height="70" as="geometry" />
        </mxCell>
        <mxCell id="iR7yz01aufCSReRVloAO-231" value="" style="group" parent="iR7yz01aufCSReRVloAO-229" vertex="1" connectable="0">
          <mxGeometry width="120" height="80" as="geometry" />
        </mxCell>
        <mxCell id="iR7yz01aufCSReRVloAO-232" value="" style="group" parent="iR7yz01aufCSReRVloAO-231" vertex="1" connectable="0">
          <mxGeometry width="120" height="80" as="geometry" />
        </mxCell>
        <mxCell id="iR7yz01aufCSReRVloAO-233" value="" style="group" parent="iR7yz01aufCSReRVloAO-232" vertex="1" connectable="0">
          <mxGeometry width="100" height="80" as="geometry" />
        </mxCell>
        <mxCell id="iR7yz01aufCSReRVloAO-234" value="&lt;font style=&quot;font-size: 5px;&quot;&gt;Code changes&lt;/font&gt;" style="text;html=1;align=center;verticalAlign=middle;whiteSpace=wrap;rounded=0;" parent="iR7yz01aufCSReRVloAO-233" vertex="1">
          <mxGeometry width="50" height="20" as="geometry" />
        </mxCell>
        <mxCell id="iR7yz01aufCSReRVloAO-235" value="" style="endArrow=classic;html=1;rounded=0;exitX=1;exitY=0.5;exitDx=0;exitDy=0;entryX=0;entryY=0.25;entryDx=0;entryDy=0;" parent="iR7yz01aufCSReRVloAO-229" source="iR7yz01aufCSReRVloAO-238" target="iR7yz01aufCSReRVloAO-230" edge="1">
          <mxGeometry width="50" height="50" relative="1" as="geometry">
            <mxPoint x="120" y="-40" as="sourcePoint" />
            <mxPoint x="150" y="-40" as="targetPoint" />
          </mxGeometry>
        </mxCell>
        <mxCell id="iR7yz01aufCSReRVloAO-236" value="" style="endArrow=classic;html=1;rounded=0;exitX=0.969;exitY=0.515;exitDx=0;exitDy=0;entryX=0.014;entryY=0.644;entryDx=0;entryDy=0;exitPerimeter=0;entryPerimeter=0;" parent="iR7yz01aufCSReRVloAO-229" target="iR7yz01aufCSReRVloAO-230" edge="1">
          <mxGeometry width="50" height="50" relative="1" as="geometry">
            <mxPoint x="118.1400000000001" y="45.450000000000045" as="sourcePoint" />
            <mxPoint x="200" y="23" as="targetPoint" />
          </mxGeometry>
        </mxCell>
        <mxCell id="iR7yz01aufCSReRVloAO-237" value="" style="group" parent="iR7yz01aufCSReRVloAO-229" vertex="1" connectable="0">
          <mxGeometry x="60" y="20" width="60" height="60" as="geometry" />
        </mxCell>
        <mxCell id="iR7yz01aufCSReRVloAO-238" value="version1_code.py" style="text;html=1;align=center;verticalAlign=middle;whiteSpace=wrap;rounded=0;" parent="iR7yz01aufCSReRVloAO-237" vertex="1">
          <mxGeometry width="60" height="30" as="geometry" />
        </mxCell>
        <mxCell id="iR7yz01aufCSReRVloAO-239" value="Remote&lt;br&gt;Repo&lt;br&gt;https://github.com/GonenI/DontSignInInPublicSpaces.git" style="text;html=1;align=center;verticalAlign=middle;whiteSpace=wrap;rounded=0;fontStyle=1" parent="1" vertex="1">
          <mxGeometry x="500" y="80" width="320" height="30" as="geometry" />
        </mxCell>
        <mxCell id="iR7yz01aufCSReRVloAO-241" value="" style="endArrow=classic;html=1;rounded=0;exitX=0.25;exitY=0;exitDx=0;exitDy=0;entryX=0.25;entryY=1;entryDx=0;entryDy=0;" parent="1" source="9BhlSFVfMuV4Uu7YiXGv-8" target="9BhlSFVfMuV4Uu7YiXGv-2" edge="1">
          <mxGeometry width="50" height="50" relative="1" as="geometry">
            <mxPoint x="450" y="310" as="sourcePoint" />
            <mxPoint x="500" y="260" as="targetPoint" />
          </mxGeometry>
        </mxCell>
        <mxCell id="iR7yz01aufCSReRVloAO-247" value="" style="edgeStyle=orthogonalEdgeStyle;rounded=0;orthogonalLoop=1;jettySize=auto;html=1;" parent="1" source="iR7yz01aufCSReRVloAO-242" target="iR7yz01aufCSReRVloAO-243" edge="1">
          <mxGeometry relative="1" as="geometry" />
        </mxCell>
        <mxCell id="iR7yz01aufCSReRVloAO-242" value="Main" style="text;html=1;align=center;verticalAlign=middle;whiteSpace=wrap;rounded=0;fontStyle=1" parent="1" vertex="1">
          <mxGeometry x="760" y="330" width="60" height="30" as="geometry" />
        </mxCell>
        <mxCell id="iR7yz01aufCSReRVloAO-243" value="Remote&lt;br&gt;Main" style="text;html=1;align=center;verticalAlign=middle;whiteSpace=wrap;rounded=0;fontStyle=1" parent="1" vertex="1">
          <mxGeometry x="722.5" y="160" width="135" height="30" as="geometry" />
        </mxCell>
        <mxCell id="iR7yz01aufCSReRVloAO-249" value="&lt;span style=&quot;color: rgb(0, 0, 0); font-family: Helvetica; font-size: 12px; font-style: normal; font-variant-ligatures: normal; font-variant-caps: normal; font-weight: 700; letter-spacing: normal; orphans: 2; text-align: left; text-indent: 0px; text-transform: none; widows: 2; word-spacing: 0px; -webkit-text-stroke-width: 0px; white-space: normal; background-color: rgb(236, 236, 236); text-decoration-thickness: initial; text-decoration-style: initial; text-decoration-color: initial; float: none; display: inline !important;&quot;&gt;commit AD9f2834&lt;/span&gt;" style="text;whiteSpace=wrap;html=1;" parent="1" vertex="1">
          <mxGeometry x="600" y="160" width="120" height="40" as="geometry" />
        </mxCell>
        <mxCell id="iR7yz01aufCSReRVloAO-250" value="&lt;h1 style=&quot;margin-top: 0px;&quot;&gt;&lt;span style=&quot;font-size: 12px;&quot;&gt;commit 889f28d&lt;/span&gt;&lt;/h1&gt;&lt;div&gt;commit 889f28d&lt;/div&gt;" style="text;html=1;whiteSpace=wrap;overflow=hidden;rounded=0;fontStyle=1" parent="1" vertex="1">
          <mxGeometry x="605" y="310" width="110" height="125" as="geometry" />
        </mxCell>
        <mxCell id="tmlFEvLFlKVYa_HaiNg9-1" value="Main" style="text;html=1;align=center;verticalAlign=middle;whiteSpace=wrap;rounded=0;fontStyle=1" vertex="1" parent="1">
          <mxGeometry x="120" y="230" width="60" height="30" as="geometry" />
        </mxCell>
        <mxCell id="tmlFEvLFlKVYa_HaiNg9-2" value="" style="edgeStyle=orthogonalEdgeStyle;rounded=0;orthogonalLoop=1;jettySize=auto;html=1;exitX=1;exitY=0.5;exitDx=0;exitDy=0;" edge="1" parent="1" source="tmlFEvLFlKVYa_HaiNg9-1">
          <mxGeometry relative="1" as="geometry">
            <mxPoint x="790" y="440" as="sourcePoint" />
            <mxPoint x="790" y="200" as="targetPoint" />
          </mxGeometry>
        </mxCell>
        <mxCell id="tmlFEvLFlKVYa_HaiNg9-3" value="&lt;span style=&quot;color: rgb(0, 0, 0); font-family: Helvetica; font-size: 12px; font-style: normal; font-variant-ligatures: normal; font-variant-caps: normal; font-weight: 700; letter-spacing: normal; orphans: 2; text-align: left; text-indent: 0px; text-transform: none; widows: 2; word-spacing: 0px; -webkit-text-stroke-width: 0px; white-space: normal; background-color: rgb(236, 236, 236); text-decoration-thickness: initial; text-decoration-style: initial; text-decoration-color: initial; display: inline !important; float: none;&quot;&gt;commit A2F&lt;/span&gt;" style="text;whiteSpace=wrap;html=1;" vertex="1" parent="1">
          <mxGeometry x="605" y="250" width="100" height="40" as="geometry" />
        </mxCell>
        <mxCell id="tmlFEvLFlKVYa_HaiNg9-4" value="&lt;span style=&quot;color: rgb(0, 0, 0); font-family: Helvetica; font-size: 12px; font-style: normal; font-variant-ligatures: normal; font-variant-caps: normal; font-weight: 700; letter-spacing: normal; orphans: 2; text-align: left; text-indent: 0px; text-transform: none; widows: 2; word-spacing: 0px; -webkit-text-stroke-width: 0px; white-space: normal; background-color: rgb(236, 236, 236); text-decoration-thickness: initial; text-decoration-style: initial; text-decoration-color: initial; float: none; display: inline !important;&quot;&gt;commit D3A&lt;/span&gt;" style="text;whiteSpace=wrap;html=1;" vertex="1" parent="1">
          <mxGeometry x="610" y="300" width="100" height="40" as="geometry" />
        </mxCell>
        <mxCell id="tmlFEvLFlKVYa_HaiNg9-5" value="&lt;span style=&quot;color: rgb(0, 0, 0); font-family: Helvetica; font-size: 12px; font-style: normal; font-variant-ligatures: normal; font-variant-caps: normal; font-weight: 700; letter-spacing: normal; orphans: 2; text-align: left; text-indent: 0px; text-transform: none; widows: 2; word-spacing: 0px; -webkit-text-stroke-width: 0px; white-space: normal; background-color: rgb(236, 236, 236); text-decoration-thickness: initial; text-decoration-style: initial; text-decoration-color: initial; float: none; display: inline !important;&quot;&gt;commit&amp;nbsp;&lt;/span&gt;&lt;span style=&quot;color: rgb(31, 35, 40); font-family: &amp;quot;Monaspace Neon&amp;quot;, ui-monospace, SFMono-Regular, &amp;quot;SF Mono&amp;quot;, Menlo, Consolas, &amp;quot;Liberation Mono&amp;quot;, monospace; white-space: pre; background-color: rgb(255, 255, 255);&quot;&gt;b8e8ac3&lt;/span&gt;" style="text;whiteSpace=wrap;html=1;" vertex="1" parent="1">
          <mxGeometry x="600" y="180" width="100" height="40" as="geometry" />
        </mxCell>
        <mxCell id="tmlFEvLFlKVYa_HaiNg9-8" value="" style="edgeStyle=orthogonalEdgeStyle;rounded=0;orthogonalLoop=1;jettySize=auto;html=1;" edge="1" parent="1" source="tmlFEvLFlKVYa_HaiNg9-7">
          <mxGeometry relative="1" as="geometry">
            <mxPoint x="680" y="265" as="targetPoint" />
          </mxGeometry>
        </mxCell>
        <mxCell id="tmlFEvLFlKVYa_HaiNg9-7" value="TAG&lt;br&gt;V1.2.1" style="text;html=1;align=center;verticalAlign=middle;whiteSpace=wrap;rounded=0;" vertex="1" parent="1">
          <mxGeometry x="705" y="250" width="60" height="30" as="geometry" />
        </mxCell>
      </root>
    </mxGraphModel>
  </diagram>
</mxfile>
